<svg width="1299" height="395" viewBox="0 0 1299 395" fill="none" xmlns="http://www.w3.org/2000/svg">
<path d="M56 318.5C54 318.5 52 318.5 50 318.5C48.3333 318.5 46.5 318.333 44.5 318C31.5 316.667 20.8333 312.167 12.5 304.5C4.16667 296.833 2.6077e-08 286.833 2.6077e-08 274.5C2.6077e-08 259.5 5.66667 246.167 17 234.5C27 224.167 39.6667 216.5 55 211.5C73.6667 205.167 94.5 200.333 117.5 197C109.167 180 105 161.167 105 140.5C105 99.8333 115 67.1666 135 42.5C152.333 21.1667 172.833 10.5 196.5 10.5C213.833 10.5 228.333 16.6667 240 29C251.667 41 257.5 58 257.5 80C257.5 102 250.667 127.5 237 156.5C234.333 162.167 231.333 167.667 228 173C225 178 221.667 183.167 218 188.5H240.5C242.167 186.833 244.667 183.833 248 179.5C251.333 175.167 255.5 169.667 260.5 163L301 108C305.667 101.333 310 95.5 314 90.5C318 85.1667 321.5 80.6667 324.5 77L328.5 50C329.167 42.6667 329.5 38.3333 329.5 37C329.5 24 326.333 17.5 320 17.5C317 17.5 313.5 19 309.5 22C303.833 25.6667 297.833 31.3333 291.5 39C285.833 45.6667 282.5 50.1667 281.5 52.5C280.167 55.1667 278.667 56.5 277 56.5C275.667 56.5 275 55.6667 275 54C275 52.6667 275.167 51.6667 275.5 51C281.833 36.6667 292.833 24.6667 308.5 15C316.167 9.66665 323.5 6.99998 330.5 6.99998C342.5 6.99998 348.5 14.8333 348.5 30.5C348.5 34.1667 348 41.3333 347 52L343 94.5C341.333 113.833 339.667 131 338 146C336.333 160.667 335.167 173.333 334.5 184C350.833 182.667 361.333 180.667 366 178C367.667 176.667 369.167 176 370.5 176C371.167 176 371.5 176.5 371.5 177.5C371.5 179.5 370 181.5 367 183.5C359.667 187.833 348.833 191.333 334.5 194C334.5 197.667 334.333 201.333 334 205C334 208.333 334 211.667 334 215C334 236 335.333 251.833 338 262.5C343 284.167 351.5 295 363.5 295C377.833 295 390.5 282.5 401.5 257.5C402.5 255.167 403.667 254 405 254C407 254 407.5 255.833 406.5 259.5C401.833 273.5 394.333 284.667 384 293C374 301.667 363.667 306 353 306C332.333 306 319.667 291.167 315 261.5C314 256.167 313.333 250.333 313 244C312.667 237.333 312.5 230 312.5 222C312.5 218.333 312.5 214.333 312.5 210C312.5 205.667 312.667 201.167 313 196.5C309.667 196.833 302.833 197 292.5 197H250.5C241.833 206.667 232.667 216 223 225C213.667 234 203.833 242.833 193.5 251.5C194.833 251.5 196 251.667 197 252C198.333 252 199.667 252 201 252C225 252 246.333 239.667 265 215C265.333 214 266.167 213.833 267.5 214.5C268.833 215.5 269 216.5 268 217.5C248 243.833 225.167 257 199.5 257C195.5 257 191.833 256.667 188.5 256C153.833 284.667 122.833 303.167 95.5 311.5C88.8333 313.833 82.1667 315.5 75.5 316.5C68.8333 317.833 62.3333 318.5 56 318.5ZM124.5 196C151.833 192 180.833 189.667 211.5 189C219.5 177.333 226.333 165.667 232 154C244.667 128 251 104.667 251 84C251 64.3333 245.5 48.3333 234.5 36C223.833 23.3333 210.167 17 193.5 17C172.167 17 154 27 139 47C121.333 69.6667 112.5 100.833 112.5 140.5C112.5 160.5 116.5 179 124.5 196ZM283 186.5C292 186.5 302.333 186.167 314 185.5C314.667 172.167 315.667 158 317 143C318.667 127.667 320.833 111.333 323.5 94C322.167 96.3333 319.833 100.167 316.5 105.5C313.5 110.5 309.167 116.667 303.5 124L259.5 186C265.833 186.333 273.667 186.5 283 186.5ZM182 249L234.5 196C228.5 195.667 221.333 195.667 213 196C206.667 205.333 199.833 214 192.5 222C185.5 230 178.167 237.667 170.5 245C174.833 246.667 178.667 248 182 249ZM165.5 242C180.5 228 194 212.833 206 196.5C184 197.833 158.667 201.167 130 206.5C139.667 222.5 151.5 234.333 165.5 242ZM67.5 306C102.167 306 138.833 288.5 177.5 253.5L166 249C131.667 278.667 97.6667 293.5 64 293.5C54.3333 293.5 45.5 292.333 37.5 290C36.5 289.333 36 288.667 36 288C36 286 36.8333 285.333 38.5 286C46.5 288 54.5 289 62.5 289C94.5 289 127.333 274.667 161 246C146 237.667 133.5 224.833 123.5 207.5C108.167 210.167 94.5 213 82.5 216C70.5 219 60.1667 221.833 51.5 224.5C21.5 234.833 6.5 249.5 6.5 268.5C6.5 278.167 11.1667 286.333 20.5 293C29.5 299.667 40.5 303.667 53.5 305C58.1667 305.667 62.8333 306 67.5 306ZM393.277 291C389.944 291 388.444 289.333 388.777 286C389.777 281.667 390.944 275.167 392.277 266.5C393.611 257.5 395.111 246 396.777 232C397.444 225.667 398.111 220 398.777 215C399.444 209.667 399.944 204.833 400.277 200.5L401.777 182C402.111 178.333 404.277 175.167 408.277 172.5C412.611 169.833 416.944 168.5 421.277 168.5C427.277 168.5 429.444 171 427.777 176L420.777 202C419.111 206.667 417.611 211.5 416.277 216.5C414.944 221.5 413.444 226.667 411.777 232C420.111 217.667 430.111 204.167 441.777 191.5C454.777 178.167 464.444 171.5 470.777 171.5C478.777 171.5 484.444 176 487.777 185C491.444 193.667 491.611 198 488.277 198C487.611 198 486.444 196.667 484.777 194C481.777 188 477.611 185 472.277 185C458.944 185 442.444 199.833 422.777 229.5C411.777 246.167 403.444 265.333 397.777 287C397.111 289.667 395.611 291 393.277 291ZM472.297 303.5C459.63 303.5 453.297 300.833 453.297 295.5C453.297 289.167 458.63 285.667 469.297 285C483.297 284.333 500.63 282.667 521.297 280C523.964 275.667 525.297 271.833 525.297 268.5C525.297 263.167 521.464 257.167 513.797 250.5C495.464 234.5 486.297 219.167 486.297 204.5C486.297 199.5 487.464 194.833 489.797 190.5C501.13 171.167 515.13 161.5 531.797 161.5C538.797 161.5 544.797 163.333 549.797 167C554.797 170.667 557.297 174.667 557.297 179C557.297 180.333 556.964 181.667 556.297 183C555.964 184 555.464 184.5 554.797 184.5C554.13 184.5 553.297 183.5 552.297 181.5C551.63 175.833 548.464 173 542.797 173C534.464 173 525.797 177.5 516.797 186.5C508.13 195.833 503.797 204.667 503.797 213C503.797 220.333 508.63 229.833 518.297 241.5C527.964 252.833 532.797 261.333 532.797 267C532.797 269.667 531.964 273 530.297 277C534.63 275 539.964 272.167 546.297 268.5C552.964 264.833 560.797 260.333 569.797 255C570.797 255.667 566.964 259.833 558.297 267.5L526.297 286.5C523.63 291.167 516.63 295.167 505.297 298.5C494.964 301.833 483.964 303.5 472.297 303.5ZM571.418 291.5C570.418 291.5 569.918 291 569.918 290C569.251 280.667 571.251 262.667 575.918 236C578.251 222.667 580.418 211.5 582.418 202.5C584.751 193.167 586.751 186.167 588.418 181.5C578.085 183.833 572.585 188 571.918 194C571.251 198 570.085 200 568.418 200C566.418 200 565.751 198 566.418 194C566.751 184.667 575.251 177.5 591.918 172.5C596.251 158.167 601.418 144.167 607.418 130.5C613.751 116.833 620.751 103.5 628.418 90.5C646.418 61.1667 665.418 38.8333 685.418 23.5C705.751 7.83331 726.418 -2.14577e-05 747.418 -2.14577e-05C774.418 -2.14577e-05 792.418 11.3333 801.418 34C803.751 39.6667 804.918 45.8333 804.918 52.5C804.918 71.8333 795.418 88.6667 776.418 103C748.085 125 691.251 149.5 605.918 176.5C601.251 189.167 595.585 215.833 588.918 256.5L630.418 201.5C631.085 197.5 633.418 193.167 637.418 188.5C641.751 183.5 645.251 181 647.918 181C650.251 181 651.418 182.833 651.418 186.5C651.418 187.167 651.418 188 651.418 189C651.418 190 651.251 191 650.918 192C646.918 219 644.918 237 644.918 246C644.918 267.333 648.751 278 656.418 278C665.085 278 676.918 269.167 691.918 251.5L702.418 238.5C703.418 237.5 704.251 238.5 704.918 241.5C702.251 247.5 695.418 256.167 684.418 267.5C669.418 283.167 656.585 291 645.918 291C642.251 291 639.251 290.333 636.918 289C628.918 285 624.918 271.5 624.918 248.5C624.918 242.5 625.085 236.833 625.418 231.5C626.085 226.167 626.751 221.167 627.418 216.5C619.418 225.833 606.251 242 587.918 265C587.251 272.667 584.918 279 580.918 284C577.251 289 574.085 291.5 571.418 291.5ZM607.918 168C631.251 161.333 659.751 150.167 693.418 134.5C730.085 117.5 756.918 102.5 773.918 89.5C790.585 76.5 798.918 63.1667 798.918 49.5C798.918 45.8333 798.251 42.5 796.918 39.5C790.251 22.8333 774.251 14.5 748.918 14.5C741.918 14.5 735.751 15.1667 730.418 16.5C695.085 22.8333 667.085 43.1667 646.418 77.5C642.751 83.1667 637.751 93.5 631.418 108.5C625.085 123.833 617.251 143.667 607.918 168ZM711.512 292C700.845 290.333 695.512 282.833 695.512 269.5C695.512 249.167 704.845 226.667 723.512 202C742.845 176 762.845 163 783.512 163C790.512 163 796.845 164.667 802.512 168C808.512 171 811.512 175.833 811.512 182.5C811.512 190.167 808.345 194.5 802.012 195.5C804.012 192.167 805.012 188.833 805.012 185.5C805.012 178.167 800.845 174.5 792.512 174.5C784.512 174.5 775.845 178.5 766.512 186.5C743.512 206.167 726.678 229 716.012 255C712.678 263 711.012 269.667 711.012 275C711.012 279.333 712.512 281.5 715.512 281.5C718.845 281.5 724.678 277.667 733.012 270C738.678 264.667 751.012 248.5 770.012 221.5C775.012 214.5 779.012 211 782.012 211C784.678 211 786.012 218 786.012 232V260C789.012 274.667 794.178 282 801.512 282C805.512 282 810.345 280.667 816.012 278C822.012 275 827.845 270.333 833.512 264L842.512 254.5C843.512 254.167 844.678 254.833 846.012 256.5C844.678 260.167 838.845 266.333 828.512 275C815.512 286 803.512 291.5 792.512 291.5C789.512 291.5 786.512 291 783.512 290C774.845 287 769.178 277.667 766.512 262C765.845 257.667 765.178 254 764.512 251C764.178 248 764.012 245.5 764.012 243.5C764.012 242.5 764.012 241.667 764.012 241C762.012 245 756.178 253.333 746.512 266C732.178 284.667 720.512 293.333 711.512 292ZM921.789 303C904.456 303 895.789 291.833 895.789 269.5C895.789 257.5 898.289 242.5 903.289 224.5L911.289 196L876.289 236C867.956 245.667 861.456 253.667 856.789 260C852.122 266.333 849.289 270.833 848.289 273.5C844.289 284.167 838.122 289.5 829.789 289.5C826.789 289.5 825.789 288 826.789 285L834.789 254C837.456 244.333 839.289 235.5 840.289 227.5C841.289 219.167 841.789 211.833 841.789 205.5C841.789 202.833 841.622 200.5 841.289 198.5C840.956 196.5 840.789 194.5 840.789 192.5C840.789 188.167 842.956 184.167 847.289 180.5C851.622 176.833 855.956 175 860.289 175C865.289 175 867.289 177.833 866.289 183.5C865.289 189.167 864.122 195 862.789 201C861.789 206.667 860.789 212.333 859.789 218L851.789 254.5C871.789 236.167 892.956 209.5 915.289 174.5C916.622 172.167 919.789 171 924.789 171C932.789 171 936.956 172.667 937.289 176C937.956 179 936.622 185 933.289 194C928.289 208.667 924.789 220.167 922.789 228.5C917.789 249.5 915.289 266.167 915.289 278.5C915.289 290.5 917.956 296.5 923.289 296.5C929.289 296.5 936.122 293.167 943.789 286.5C950.789 280.5 954.122 277.5 953.789 277.5C954.789 277.5 954.956 278.833 954.289 281.5C953.956 284.167 952.289 287 949.289 290C940.622 298.667 931.456 303 921.789 303ZM987.254 395C980.254 395 973.587 392.5 967.254 387.5C959.587 380.833 955.254 372.667 954.254 363C953.921 360.667 953.754 358.333 953.754 356V349C953.754 326.333 957.754 296.5 965.754 259.5C968.754 244.5 971.754 231 974.754 219C978.087 207 981.421 196.167 984.754 186.5C983.754 186.833 982.254 187 980.254 187C975.921 187 972.587 186 970.254 184C967.921 182 966.754 180 966.754 178C966.754 176.333 967.587 175.5 969.254 175.5C971.921 175.5 975.254 175.167 979.254 174.5C983.254 173.833 986.087 173.5 987.754 173.5C1002.75 134.5 1014.75 107 1023.75 91C1044.75 53.3333 1066.09 34.5 1087.75 34.5C1091.42 34.5 1095.09 35 1098.75 36C1106.75 38.6667 1110.75 44 1110.75 52C1110.75 58 1108.42 62 1103.75 64C1104.42 61.3333 1104.75 59.1667 1104.75 57.5C1104.75 49.1667 1100.42 45.3333 1091.75 46C1076.75 46.3333 1058.92 64 1038.25 99C1030.59 111.667 1023.75 124.333 1017.75 137C1012.09 149.333 1007.25 161.333 1003.25 173H1047.25C1049.92 173 1051.25 173.5 1051.25 174.5C1051.25 175.833 1048.25 177.167 1042.25 178.5C1026.25 182.5 1012.09 184.5 999.754 184.5C990.421 207.833 982.921 240.167 977.254 281.5C973.921 308.167 972.254 327.833 972.254 340.5C972.254 363.5 976.087 378.833 983.754 386.5C985.421 387.833 987.587 389.167 990.254 390.5C992.587 392.167 993.754 393.167 993.754 393.5C993.754 394.5 991.587 395 987.254 395ZM1050.94 292C1038.27 290.333 1031.94 281.5 1031.94 265.5C1031.94 240.833 1044.1 210.333 1068.44 174C1070.1 171.333 1074.27 170 1080.94 170C1091.27 170 1096.44 171.667 1096.44 175L1095.94 176C1091.94 180 1087.6 185.167 1082.94 191.5C1078.6 197.833 1074.1 205.333 1069.44 214C1061.44 228.333 1055.27 241.833 1050.94 254.5C1048.6 260.5 1047.44 266 1047.44 271C1047.44 277.667 1049.6 281 1053.94 281C1058.94 281 1065.1 277.333 1072.44 270C1075.1 267.333 1088.44 248.833 1112.44 214.5C1117.44 207.833 1121.44 204.5 1124.44 204.5C1126.77 204.5 1127.94 207.333 1127.94 213C1127.94 216 1127.77 219 1127.44 222C1127.44 224.667 1127.44 227.333 1127.44 230C1127.44 264.333 1134.27 281.5 1147.94 281.5C1156.94 281.5 1167.1 275.667 1178.44 264L1187.44 254.5C1188.44 253.833 1189.44 254.5 1190.44 256.5C1189.1 260.167 1183.27 266.333 1172.94 275C1159.94 286 1148.1 291.5 1137.44 291.5C1134.44 291.5 1131.44 291 1128.44 290C1119.44 287 1113.27 276.5 1109.94 258.5C1107.6 245.167 1106.6 236.833 1106.94 233.5C1104.94 237.167 1098.44 246.833 1087.44 262.5C1071.77 283.5 1059.6 293.333 1050.94 292ZM1264.56 303C1247.23 303 1238.56 291.833 1238.56 269.5C1238.56 257.5 1241.06 242.5 1246.06 224.5L1254.06 196L1219.06 236C1210.73 245.667 1204.23 253.667 1199.56 260C1194.9 266.333 1192.06 270.833 1191.06 273.5C1187.06 284.167 1180.9 289.5 1172.56 289.5C1169.56 289.5 1168.56 288 1169.56 285L1177.56 254C1180.23 244.333 1182.06 235.5 1183.06 227.5C1184.06 219.167 1184.56 211.833 1184.56 205.5C1184.56 202.833 1184.4 200.5 1184.06 198.5C1183.73 196.5 1183.56 194.5 1183.56 192.5C1183.56 188.167 1185.73 184.167 1190.06 180.5C1194.4 176.833 1198.73 175 1203.06 175C1208.06 175 1210.06 177.833 1209.06 183.5C1208.06 189.167 1206.9 195 1205.56 201C1204.56 206.667 1203.56 212.333 1202.56 218L1194.56 254.5C1214.56 236.167 1235.73 209.5 1258.06 174.5C1259.4 172.167 1262.56 171 1267.56 171C1275.56 171 1279.73 172.667 1280.06 176C1280.73 179 1279.4 185 1276.06 194C1271.06 208.667 1267.56 220.167 1265.56 228.5C1260.56 249.5 1258.06 266.167 1258.06 278.5C1258.06 290.5 1260.73 296.5 1266.06 296.5C1272.06 296.5 1278.9 293.167 1286.56 286.5C1293.56 280.5 1296.9 277.5 1296.56 277.5C1297.56 277.5 1297.73 278.833 1297.06 281.5C1296.73 284.167 1295.06 287 1292.06 290C1283.4 298.667 1274.23 303 1264.56 303Z" fill="url(#paint0_linear_101_7)"/>
<defs>
<linearGradient id="paint0_linear_101_7" x1="43" y1="194.5" x2="1033" y2="219" gradientUnits="userSpaceOnUse">
<stop stop-color="#0090F7"/>
<stop offset="0.505" stop-color="#BA62FC"/>
<stop offset="1" stop-color="#F2416B"/>
</linearGradient>
</defs>
</svg>
