<svg width="153" height="206" viewBox="0 0 153 206" fill="none" xmlns="http://www.w3.org/2000/svg">
<path d="M103.571 93.21C103.571 94.1799 103.284 95.128 102.745 95.9344C102.206 96.7409 101.44 97.3694 100.544 97.7406C99.6478 98.1118 98.6618 98.2089 97.7106 98.0197C96.7593 97.8304 95.8855 97.3634 95.1997 96.6776C94.5138 95.9917 94.0468 95.118 93.8576 94.1667C93.6684 93.2154 93.7655 92.2294 94.1366 91.3333C94.5078 90.4373 95.1364 89.6714 95.9428 89.1325C96.7492 88.5937 97.6974 88.3061 98.6673 88.3061C99.9679 88.3061 101.215 88.8227 102.135 89.7424C103.055 90.662 103.571 91.9094 103.571 93.21ZM49.6281 88.3061C48.6582 88.3061 47.7101 88.5937 46.9036 89.1325C46.0972 89.6714 45.4687 90.4373 45.0975 91.3333C44.7263 92.2294 44.6292 93.2154 44.8184 94.1667C45.0076 95.118 45.4747 95.9917 46.1605 96.6776C46.8463 97.3634 47.7201 97.8304 48.6714 98.0197C49.6227 98.2089 50.6087 98.1118 51.5048 97.7406C52.4008 97.3694 53.1667 96.7409 53.7056 95.9344C54.2444 95.128 54.532 94.1799 54.532 93.21C54.532 91.9094 54.0154 90.662 53.0957 89.7424C52.1761 88.8227 50.9287 88.3061 49.6281 88.3061ZM85.9759 119.068C82.4542 121.354 78.3459 122.57 74.1477 122.57C69.9495 122.57 65.8412 121.354 62.3194 119.068C61.7784 118.707 61.1159 118.575 60.4776 118.702C59.8394 118.829 59.2777 119.204 58.9161 119.745C58.5546 120.286 58.4227 120.949 58.5497 121.587C58.6766 122.225 59.0518 122.787 59.5929 123.148C63.9064 126.011 68.9684 127.537 74.1452 127.537C79.3221 127.537 84.384 126.011 88.6976 123.148C89.2387 122.787 89.6142 122.226 89.7415 121.589C89.8689 120.951 89.7377 120.289 89.3768 119.748C89.0159 119.206 88.4548 118.831 87.817 118.704C87.1792 118.576 86.517 118.707 85.9759 119.068ZM152.179 35.4566C152.388 35.7703 152.522 36.1282 152.571 36.5023C152.619 36.8764 152.581 37.2567 152.459 37.6135C152.336 37.9703 152.133 38.2941 151.865 38.5596C151.597 38.8251 151.272 39.0252 150.914 39.1443C150.423 39.3159 138.443 43.6755 142.709 60.7215C145.463 69.9267 145.74 79.6951 143.514 89.0416C144.765 89.6378 145.823 90.5756 146.565 91.747C147.307 92.9183 147.702 94.2755 147.706 95.6619C147.706 107.093 137.673 117.852 127.782 121.942C127.149 123.21 126.45 124.444 125.688 125.64C117.31 137.999 104.588 146.752 90.0511 150.159C98.3538 153.371 105.492 159.016 110.53 166.356C115.568 173.695 118.271 182.386 118.283 191.288V193.74C118.283 196.992 116.991 200.11 114.692 202.409C112.393 204.708 109.275 206 106.023 206H42.2722C39.0207 206 35.9024 204.708 33.6033 202.409C31.3041 200.11 30.0125 196.992 30.0125 193.74V191.288C30.0271 182.388 32.7299 173.701 37.7668 166.363C42.8036 159.026 49.9395 153.381 58.2394 150.169C43.739 146.792 31.038 138.087 22.6566 125.782C21.8617 124.538 21.1333 123.253 20.4743 121.932C10.6028 117.833 0.588968 107.083 0.588968 95.6619C0.595702 94.3135 0.972983 92.9928 1.67957 91.8443C2.38616 90.6957 3.39488 89.7635 4.59547 89.1495C0.440407 78.6426 -0.929559 67.2403 0.618389 56.0481C2.95756 41.2922 13.1332 25.9528 30.851 10.4417C31.2784 10.0656 31.8233 9.85 32.3923 9.83177C32.9612 9.81354 33.5188 9.99385 33.9694 10.3418C34.42 10.6897 34.7354 11.1836 34.8617 11.7387C34.9879 12.2937 34.9171 12.8755 34.6614 13.384C32.8942 17.4198 32.3519 21.886 33.1019 26.2274C39.1526 17.8195 47.1813 11.0316 56.4784 6.46346C65.7754 1.89533 76.0546 -0.312333 86.4075 0.0355865C86.9583 0.0367053 87.4926 0.223239 87.9245 0.565126C88.3563 0.907014 88.6605 1.38434 88.7879 1.92018C88.9154 2.45603 88.8587 3.01917 88.627 3.51887C88.3953 4.01857 88.0022 4.42572 87.5109 4.67469C84.1686 6.50969 81.5028 9.36801 79.9049 12.8299C87.3491 9.42484 95.501 7.85358 103.678 8.24777C111.854 8.64196 119.817 10.9901 126.899 15.0955C127.359 15.3711 127.717 15.79 127.916 16.2881C128.115 16.7862 128.146 17.336 128.003 17.853C127.86 18.3701 127.551 18.826 127.124 19.1508C126.697 19.4756 126.175 19.6514 125.639 19.6512C124.991 19.6512 119.676 20.0779 118.509 28.4194C126.129 26.1686 143.695 22.6966 152.198 35.4566H152.179ZM17.4339 114.689C16.0218 110.114 15.3028 105.354 15.3007 100.566V93.21H7.94484C7.29454 93.21 6.67087 93.4683 6.21104 93.9281C5.75121 94.388 5.49288 95.0116 5.49288 95.6619C5.88175 99.5393 7.16192 103.274 9.23337 106.575C11.3048 109.876 14.1114 112.653 17.4339 114.689ZM64.4281 153.327C64.7459 155.679 65.906 157.837 67.6934 159.399C69.4807 160.961 71.7739 161.822 74.1477 161.822C76.5215 161.822 78.8147 160.961 80.602 159.399C82.3894 157.837 83.5495 155.679 83.8673 153.327L83.2101 153.155C82.1096 152.898 80.9987 152.687 79.8804 152.523C79.493 152.469 79.1105 152.39 78.7181 152.346C75.6814 151.993 72.614 151.993 69.5772 152.346C69.1849 152.39 68.8024 152.469 68.415 152.523C67.2967 152.687 66.1858 152.898 65.0853 153.155L64.4281 153.327ZM88.5799 154.842C87.919 158.184 86.119 161.193 83.487 163.355C80.855 165.518 77.5541 166.7 74.1477 166.7C70.7413 166.7 67.4404 165.518 64.8084 163.355C62.1764 161.193 60.3763 158.184 59.7155 154.842C52.4092 157.738 46.1399 162.759 41.7188 169.257C37.2976 175.754 34.9279 183.429 34.9164 191.288V193.74C34.9164 195.691 35.6914 197.562 37.0709 198.942C38.4504 200.321 40.3213 201.096 42.2722 201.096H44.7242V183.932C44.7242 183.282 44.9825 182.658 45.4424 182.199C45.9022 181.739 46.5259 181.48 47.1762 181.48C47.8265 181.48 48.4501 181.739 48.91 182.199C49.3698 182.658 49.6281 183.282 49.6281 183.932V201.096H98.6673V183.932C98.6673 183.282 98.9256 182.658 99.3854 182.199C99.8453 181.739 100.469 181.48 101.119 181.48C101.77 181.48 102.393 181.739 102.853 182.199C103.313 182.658 103.571 183.282 103.571 183.932V201.096H106.023C107.974 201.096 109.845 200.321 111.225 198.942C112.604 197.562 113.379 195.691 113.379 193.74V191.288C113.367 183.429 110.998 175.754 106.577 169.257C102.155 162.759 95.8862 157.738 88.5799 154.842ZM121.627 122.893C125.967 116.265 128.219 108.487 128.091 100.566V83.4021C128.113 80.1386 127.334 76.9195 125.822 74.0271C124.311 71.1347 122.113 68.6573 119.421 66.8122C116.745 64.9287 113.656 63.7134 110.414 63.268C107.172 62.8227 103.871 63.1602 100.786 64.2523C83.4908 70.0537 64.7752 70.0537 47.4802 64.2523C45.303 63.4699 43.0068 63.0701 40.6932 63.0705C36.4573 63.0774 32.3255 64.3834 28.8551 66.8122C26.2081 68.6155 24.0382 71.0341 22.5315 73.8604C21.0248 76.6867 20.2263 79.8365 20.2046 83.0393V100.566C20.079 108.539 22.3494 116.367 26.7219 123.036C32.0119 130.668 39.1146 136.868 47.3924 141.077C55.6701 145.287 64.8637 147.374 74.1477 147.153C83.4533 147.366 92.6657 145.261 100.954 141.025C109.243 136.79 116.348 130.559 121.627 122.893ZM142.803 95.6619C142.803 95.0116 142.544 94.388 142.084 93.9281C141.625 93.4683 141.001 93.21 140.351 93.21H132.995V100.566C133 105.351 132.28 110.109 130.861 114.679C134.183 112.644 136.989 109.868 139.06 106.57C141.131 103.271 142.412 99.5376 142.803 95.6619ZM146.368 36.0156C136.79 26.3157 116.944 34.0982 116.743 34.1864C116.371 34.3355 115.968 34.3912 115.57 34.3485C115.171 34.3057 114.789 34.166 114.457 33.9415C114.125 33.7169 113.853 33.4144 113.665 33.0604C113.477 32.7065 113.379 32.3118 113.379 31.911C113.056 29.0735 113.463 26.2006 114.559 23.5638C115.656 20.9269 117.407 18.6132 119.646 16.8413C112.928 14.1585 105.702 12.9874 98.4799 13.4112C91.2582 13.835 84.2183 15.8432 77.86 19.2933C77.4885 19.5158 77.0648 19.6361 76.6318 19.6418C76.1989 19.6474 75.7721 19.5384 75.395 19.3256C75.0178 19.1129 74.7038 18.8041 74.4847 18.4306C74.2656 18.0571 74.1493 17.6323 74.1477 17.1993C74.1854 12.7838 75.8856 8.54473 78.9094 5.32691C69.8668 6.10266 61.1383 9.01738 53.444 13.8306C45.7496 18.6438 39.31 25.2176 34.6565 33.0095C34.4296 33.3884 34.1084 33.702 33.7243 33.9197C33.3401 34.1375 32.906 34.252 32.4644 34.252C32.0228 34.252 31.5888 34.1375 31.2046 33.9197C30.8204 33.702 30.4992 33.3884 30.2724 33.0095C28.2508 28.9081 27.4491 24.3126 27.9626 19.7689C14.9035 32.5191 7.36618 44.9505 5.46346 56.7984C4.04749 67.4775 5.45596 78.3412 9.54842 88.3061H15.3007V83.4021C15.2814 79.3492 16.2545 75.3532 18.1351 71.763C20.0157 68.1728 22.7466 65.0975 26.0893 62.8057C29.4079 60.4763 33.2353 58.9742 37.2524 58.4249C41.2695 57.8755 45.3597 58.2947 49.1819 59.6476C65.4016 65.0761 82.9478 65.0761 99.1675 59.6476C102.989 58.2955 107.078 57.8768 111.094 58.4261C115.111 58.9755 118.937 60.4771 122.255 62.8057C125.544 65.0555 128.239 68.0686 130.109 71.5872C131.98 75.1058 132.97 79.0251 132.995 83.0098V88.3061H138.644C140.84 79.6178 140.608 70.4931 137.972 61.9279C134.049 46.2305 141.792 38.8746 146.368 36.0156Z" fill="url(#paint0_linear_101_3)"/>
<defs>
<linearGradient id="paint0_linear_101_3" x1="76.2957" y1="0" x2="76.2957" y2="206" gradientUnits="userSpaceOnUse">
<stop stop-color="#FF3816"/>
<stop offset="0.51" stop-color="#FF4FA9"/>
<stop offset="1" stop-color="#13B6E5"/>
</linearGradient>
</defs>
</svg>
